<svg width="269" height="53" viewBox="0 0 269 53" fill="none" xmlns="http://www.w3.org/2000/svg">
<path d="M28.64 16V38.0897H25.0166V28.4275H14.6234V38.0897H11V16H14.6234V25.4716H25.0166V16H28.64Z" fill="#27272a"/>
<path d="M26.5 51C40.031 51 51 40.031 51 26.5C51 12.969 40.031 2 26.5 2C12.969 2 2 12.969 2 26.5C2 40.031 12.969 51 26.5 51Z" stroke="#27272a" stroke-width="4"/>
<path d="M78.544 37.224C76.4747 37.224 74.5653 36.744 72.816 35.784C71.088 34.8027 69.712 33.448 68.688 31.72C67.6853 29.9707 67.184 28.008 67.184 25.832C67.184 23.656 67.6853 21.704 68.688 19.976C69.712 18.248 71.088 16.904 72.816 15.944C74.5653 14.9627 76.4747 14.472 78.544 14.472C80.6347 14.472 82.544 14.9627 84.272 15.944C86.0213 16.904 87.3973 18.248 88.4 19.976C89.4027 21.704 89.904 23.656 89.904 25.832C89.904 28.008 89.4027 29.9707 88.4 31.72C87.3973 33.448 86.0213 34.8027 84.272 35.784C82.544 36.744 80.6347 37.224 78.544 37.224ZM78.544 34.056C80.016 34.056 81.328 33.7253 82.48 33.064C83.632 32.3813 84.528 31.4213 85.168 30.184C85.8293 28.9253 86.16 27.4747 86.16 25.832C86.16 24.1893 85.8293 22.7493 85.168 21.512C84.528 20.2747 83.632 19.3253 82.48 18.664C81.328 18.0027 80.016 17.672 78.544 17.672C77.072 17.672 75.76 18.0027 74.608 18.664C73.456 19.3253 72.5493 20.2747 71.888 21.512C71.248 22.7493 70.928 24.1893 70.928 25.832C70.928 27.4747 71.248 28.9253 71.888 30.184C72.5493 31.4213 73.456 32.3813 74.608 33.064C75.76 33.7253 77.072 34.056 78.544 34.056ZM97.1418 21.96C97.7604 21.1493 98.6031 20.4667 99.6698 19.912C100.736 19.3573 101.942 19.08 103.286 19.08C104.822 19.08 106.219 19.464 107.478 20.232C108.758 20.9787 109.76 22.0347 110.486 23.4C111.211 24.7653 111.574 26.3333 111.574 28.104C111.574 29.8747 111.211 31.464 110.486 32.872C109.76 34.2587 108.758 35.3467 107.478 36.136C106.219 36.904 104.822 37.288 103.286 37.288C101.942 37.288 100.747 37.0213 99.7018 36.488C98.6564 35.9333 97.8031 35.2507 97.1418 34.44V45.384H93.4938V19.368H97.1418V21.96ZM107.862 28.104C107.862 26.888 107.606 25.8427 107.094 24.968C106.603 24.072 105.942 23.4 105.11 22.952C104.299 22.4827 103.424 22.248 102.486 22.248C101.568 22.248 100.694 22.4827 99.8618 22.952C99.0511 23.4213 98.3898 24.104 97.8778 25C97.3871 25.896 97.1418 26.952 97.1418 28.168C97.1418 29.384 97.3871 30.4507 97.8778 31.368C98.3898 32.264 99.0511 32.9467 99.8618 33.416C100.694 33.8853 101.568 34.12 102.486 34.12C103.424 34.12 104.299 33.8853 105.11 33.416C105.942 32.9253 106.603 32.2213 107.094 31.304C107.606 30.3867 107.862 29.32 107.862 28.104ZM131.341 27.752C131.341 28.4133 131.299 29.0107 131.213 29.544H117.741C117.848 30.952 118.371 32.0827 119.309 32.936C120.248 33.7893 121.4 34.216 122.765 34.216C124.728 34.216 126.115 33.3947 126.925 31.752H130.861C130.328 33.3733 129.357 34.7067 127.949 35.752C126.563 36.776 124.835 37.288 122.765 37.288C121.08 37.288 119.565 36.9147 118.221 36.168C116.899 35.4 115.853 34.3333 115.085 32.968C114.339 31.5813 113.965 29.9813 113.965 28.168C113.965 26.3547 114.328 24.7653 115.053 23.4C115.8 22.0133 116.835 20.9467 118.157 20.2C119.501 19.4533 121.037 19.08 122.765 19.08C124.429 19.08 125.912 19.4427 127.213 20.168C128.515 20.8933 129.528 21.9173 130.253 23.24C130.979 24.5413 131.341 26.0453 131.341 27.752ZM127.533 26.6C127.512 25.256 127.032 24.1787 126.093 23.368C125.155 22.5573 123.992 22.152 122.605 22.152C121.347 22.152 120.269 22.5573 119.373 23.368C118.477 24.1573 117.944 25.2347 117.773 26.6H127.533ZM143.827 19.08C145.214 19.08 146.451 19.368 147.539 19.944C148.649 20.52 149.513 21.3733 150.131 22.504C150.75 23.6347 151.059 25 151.059 26.6V37H147.443V27.144C147.443 25.5653 147.049 24.36 146.259 23.528C145.47 22.6747 144.393 22.248 143.027 22.248C141.662 22.248 140.574 22.6747 139.763 23.528C138.974 24.36 138.579 25.5653 138.579 27.144V37H134.931V19.368H138.579V21.384C139.177 20.6587 139.934 20.0933 140.851 19.688C141.79 19.2827 142.782 19.08 143.827 19.08ZM181.785 14.76V37H178.137V27.272H167.673V37H164.025V14.76H167.673V24.296H178.137V14.76H181.785ZM202.748 27.752C202.748 28.4133 202.705 29.0107 202.62 29.544H189.148C189.254 30.952 189.777 32.0827 190.716 32.936C191.654 33.7893 192.806 34.216 194.172 34.216C196.134 34.216 197.521 33.3947 198.332 31.752H202.267C201.734 33.3733 200.764 34.7067 199.356 35.752C197.969 36.776 196.241 37.288 194.172 37.288C192.486 37.288 190.972 36.9147 189.628 36.168C188.305 35.4 187.26 34.3333 186.492 32.968C185.745 31.5813 185.372 29.9813 185.372 28.168C185.372 26.3547 185.734 24.7653 186.46 23.4C187.206 22.0133 188.241 20.9467 189.564 20.2C190.908 19.4533 192.444 19.08 194.172 19.08C195.836 19.08 197.318 19.4427 198.62 20.168C199.921 20.8933 200.934 21.9173 201.66 23.24C202.385 24.5413 202.748 26.0453 202.748 27.752ZM198.94 26.6C198.918 25.256 198.438 24.1787 197.5 23.368C196.561 22.5573 195.398 22.152 194.012 22.152C192.753 22.152 191.676 22.5573 190.78 23.368C189.884 24.1573 189.35 25.2347 189.18 26.6H198.94ZM209.986 21.928C210.519 21.032 211.223 20.3387 212.098 19.848C212.994 19.336 214.05 19.08 215.266 19.08V22.856H214.338C212.908 22.856 211.82 23.2187 211.074 23.944C210.348 24.6693 209.986 25.928 209.986 27.72V37H206.338V19.368H209.986V21.928ZM217.403 28.104C217.403 26.3333 217.765 24.7653 218.491 23.4C219.237 22.0347 220.24 20.9787 221.499 20.232C222.779 19.464 224.187 19.08 225.723 19.08C227.109 19.08 228.315 19.3573 229.339 19.912C230.384 20.4453 231.216 21.1173 231.835 21.928V19.368H235.515V37H231.835V34.376C231.216 35.208 230.373 35.9013 229.307 36.456C228.24 37.0107 227.024 37.288 225.659 37.288C224.144 37.288 222.757 36.904 221.499 36.136C220.24 35.3467 219.237 34.2587 218.491 32.872C217.765 31.464 217.403 29.8747 217.403 28.104ZM231.835 28.168C231.835 26.952 231.579 25.896 231.067 25C230.576 24.104 229.925 23.4213 229.115 22.952C228.304 22.4827 227.429 22.248 226.491 22.248C225.552 22.248 224.677 22.4827 223.867 22.952C223.056 23.4 222.395 24.072 221.883 24.968C221.392 25.8427 221.147 26.888 221.147 28.104C221.147 29.32 221.392 30.3867 221.883 31.304C222.395 32.2213 223.056 32.9253 223.867 33.416C224.699 33.8853 225.573 34.12 226.491 34.12C227.429 34.12 228.304 33.8853 229.115 33.416C229.925 32.9467 230.576 32.264 231.067 31.368C231.579 30.4507 231.835 29.384 231.835 28.168ZM243.954 13.32V37H240.306V13.32H243.954ZM247.528 28.104C247.528 26.3333 247.89 24.7653 248.616 23.4C249.362 22.0347 250.365 20.9787 251.624 20.232C252.904 19.464 254.322 19.08 255.88 19.08C257.032 19.08 258.162 19.336 259.272 19.848C260.402 20.3387 261.298 21 261.96 21.832V13.32H265.64V37H261.96V34.344C261.362 35.1973 260.53 35.9013 259.464 36.456C258.418 37.0107 257.213 37.288 255.848 37.288C254.312 37.288 252.904 36.904 251.624 36.136C250.365 35.3467 249.362 34.2587 248.616 32.872C247.89 31.464 247.528 29.8747 247.528 28.104ZM261.96 28.168C261.96 26.952 261.704 25.896 261.192 25C260.701 24.104 260.05 23.4213 259.24 22.952C258.429 22.4827 257.554 22.248 256.616 22.248C255.677 22.248 254.802 22.4827 253.992 22.952C253.181 23.4 252.52 24.072 252.008 24.968C251.517 25.8427 251.272 26.888 251.272 28.104C251.272 29.32 251.517 30.3867 252.008 31.304C252.52 32.2213 253.181 32.9253 253.992 33.416C254.824 33.8853 255.698 34.12 256.616 34.12C257.554 34.12 258.429 33.8853 259.24 33.416C260.05 32.9467 260.701 32.264 261.192 31.368C261.704 30.4507 261.96 29.384 261.96 28.168Z" fill="#27272a"/>
<path d="M42 35H32V38H42V35Z" fill="#27272a"/>
</svg>
